<svg fill="none" height="108" viewBox="0 0 95 108" width="95" xmlns="http://www.w3.org/2000/svg"> <g clip-path="url(#clip0_1130_128)"> <path d="M9.10032 77.7633L2.16022 84.682C1.42264 85.4173 1.42263 86.6095 2.16022 87.3448L20.709 105.836C21.4466 106.572 22.6424 106.572 23.38 105.836L30.3201 98.9177C31.0577 98.1824 31.0577 96.9902 30.3201 96.2549L11.7713 77.7633C11.0338 77.028 9.8379 77.028 9.10032 77.7633Z" stroke="#7B863B" stroke-linecap="round" stroke-linejoin="round" stroke-width="2"></path> <path d="M12.688 78.6624L28.5724 62.8269H57.5971C61.0355 62.8269 63.812 65.611 63.812 69.0227C63.812 72.4505 61.0193 75.2185 57.5971 75.2185H41.8095" stroke="#7B863B" stroke-linecap="round" stroke-linejoin="round" stroke-width="2"></path> <path d="M29.396 95.3349L62.989 90.861L91.4325 62.4248C94.0154 59.8499 94.0154 55.6657 91.4325 53.0908C88.8497 50.5159 84.6526 50.5159 82.0697 53.0908L71.5931 63.5352" stroke="#7B863B" stroke-linecap="round" stroke-linejoin="round" stroke-width="2"></path> <path d="M51.3179 49.6952C64.6375 49.6952 75.4352 38.9308 75.4352 25.6523C75.4352 12.3738 64.6375 1.60938 51.3179 1.60938C37.9983 1.60938 27.2007 12.3738 27.2007 25.6523C27.2007 38.9308 37.9983 49.6952 51.3179 49.6952Z" stroke="#7B863B" stroke-linecap="round" stroke-linejoin="round" stroke-width="2"></path> <path d="M41.3091 27.3421L47.7339 33.7471L61.3099 20.2129" stroke="#7B863B" stroke-linecap="round" stroke-linejoin="round" stroke-width="2"></path> </g> <defs> <clipPath id="clip0_1130_128"> <rect fill="white" height="108" width="95"></rect> </clipPath> </defs> </svg>