<svg width="86" height="75" viewBox="0 0 86 75" fill="none" xmlns="http://www.w3.org/2000/svg">
<g clip-path="url(#clip0_1130_92)">
<path d="M70.1069 1.09229H81.0147C82.806 1.09229 84.2623 2.5486 84.2623 4.33986V15.2476" stroke="white" stroke-width="1.5" stroke-linecap="round" stroke-linejoin="round"/>
<path d="M15.2476 1.09229H4.33986C2.5486 1.09229 1.09229 2.5486 1.09229 4.33986V15.2476" stroke="white" stroke-width="1.5" stroke-linecap="round" stroke-linejoin="round"/>
<path d="M70.1069 73.9078H81.0147C82.806 73.9078 84.2623 72.4515 84.2623 70.6602V59.7524" stroke="white" stroke-width="1.5" stroke-linecap="round" stroke-linejoin="round"/>
<path d="M15.2476 73.9078H4.33986C2.5486 73.9078 1.09229 72.4515 1.09229 70.6602V59.7524" stroke="white" stroke-width="1.5" stroke-linecap="round" stroke-linejoin="round"/>
<path d="M78.903 37.5146C54.7573 63.8884 30.6117 63.8884 6.46606 37.5146C30.6117 11.1408 54.7573 11.1408 78.903 37.5146Z" stroke="white" stroke-width="1.5" stroke-linecap="round" stroke-linejoin="round"/>
<path d="M62.4611 37.5146C62.4611 48.4369 53.6067 57.2913 42.6844 57.2913C31.7621 57.2913 22.9077 48.4369 22.9077 37.5146C22.9077 26.5923 31.7621 17.7379 42.6844 17.7379C53.6067 17.7379 62.4611 26.5923 62.4611 37.5146Z" stroke="white" stroke-width="1.5" stroke-linecap="round" stroke-linejoin="round"/>
<path d="M48.4662 37.5146C48.4662 40.7039 45.8739 43.2961 42.6846 43.2961C39.4953 43.2961 36.9031 40.7039 36.9031 37.5146C36.9031 34.3253 39.4953 31.733 42.6846 31.733C45.8739 31.733 48.4662 34.3253 48.4662 37.5146Z" stroke="white" stroke-width="1.5" stroke-linecap="round" stroke-linejoin="round"/>
</g>
<defs>
<clipPath id="clip0_1130_92">
<rect width="85.3544" height="75" fill="white"/>
</clipPath>
</defs>
</svg>
