<svg width="40px" height="40px" viewBox="0 0 40 40" version="1.1" xmlns="http://www.w3.org/2000/svg" xmlns:xlink="http://www.w3.org/1999/xlink">



                                <g id="Page-1" stroke="none" stroke-width="1" fill="none" fill-rule="evenodd">

                                    <g id="Social_Icons" transform="translate(-286.000000, 0.000000)" fill="#FFFFFF" fill-rule="nonzero">

                                        <path d="M297.3,18.2 L297.3,9.3 L293.5,9.3 L293.5,24 C293.5,27.8 296.6,31 300.2,31 L312,31 C315.3,31 318,28.1 317.9,24.6 C317.9,21 315.3,18.2 312,18.2 L297.3,18.2 Z M300.3,27.2 C298.7,27.2 297.3,25.8 297.3,24 L297.3,22.1 C297.3,22.1 312,22.1 312,22.1 C313.2,22.1 314.2,23.1 314.2,24.6 C314.2,26 313.2,27.2 312,27.2 L300.3,27.2 Z" id="Shape"></path>

                                    </g>

                                </g>

                            </svg>