<svg class="logosvg" viewBox="0 0 84 93" version="1.1" xmlns="http://www.w3.org/2000/svg" xmlns:xlink="http://www.w3.org/1999/xlink">
    <!-- Generator: Sketch 50 (54983) - http://www.bohemiancoding.com/sketch -->
 
    <defs></defs>
    <g id="Page-1" stroke="none" stroke-width="1" fill="#ffffff" fill-rule="evenodd">
        <g id="unec_logo" fill-rule="nonzero">
            <g id="Group_635">
                <g id="Group_624" transform="translate(44.737000, 18.540000)" class="logo-fill">
                    <g id="Group_623">
                        <polygon id="Path_906" points="0 0 0 24.7 6.23 24.7 6.23 6.155 13.886 6.155 13.886 24.7 20.116 24.7 20.116 0"></polygon>
                    </g>
                </g>
                <g id="Group_626" transform="translate(18.540000, 49.390000)" class="logo-fill">
                    <g id="Group_625">
                        <polygon id="Path_907" points="6.155 6.155 20.041 6.155 20.041 0 0 0 0 24.7 20.041 24.7 20.041 18.54 6.155 18.54 6.155 14.64 18.465 14.64 18.465 10.058 6.155 10.058"></polygon>
                    </g>
                </g>
                <g id="Group_628" transform="translate(44.737000, 49.390000)" class="logo-fill">
                    <g id="Group_627">
                        <polygon id="Path_908" points="6.23 6.155 20.116 6.155 20.116 0 0 0 0 24.7 20.116 24.7 20.116 18.54 6.23 18.54"></polygon>
                    </g>
                </g>
                <g id="Group_630" class="logo-fill">
                    <g id="Group_629">
                        <polygon id="Path_909" points="6.155 6.155 38.582 6.155 38.582 0 0 0 0 92.626 38.582 92.626 38.582 86.4 6.155 86.4"></polygon>
                    </g>
                </g>
                <g id="Group_632" transform="translate(44.737000, 0.000000)" class="logo-fill">
                    <g id="Group_631">
                        <polygon id="Path_910" points="0 0 0 6.155 32.427 6.155 32.427 86.4 0 86.4 0 92.63 38.582 92.63 38.582 0"></polygon>
                    </g>
                </g>
                <g id="Group_634" transform="translate(18.540000, 18.540000)" class="logo-fill">
                    <g id="Group_633">
                        <polygon id="Path_911" points="13.886 0 13.886 18.465 6.155 18.465 6.155 0 0 0 0 24.7 20.041 24.7 20.041 0"></polygon>
                    </g>
                </g>
            </g>
        </g>
    </g>
</svg>